<mxfile host="Electron" agent="Mozilla/5.0 (Windows NT 10.0; Win64; x64) AppleWebKit/537.36 (KHTML, like Gecko) draw.io/25.0.2 Chrome/128.0.6613.186 Electron/32.2.5 Safari/537.36" version="25.0.2">
  <diagram name="第 1 页" id="3TVVlOvPD6J_CO8NRHxF">
    <mxGraphModel dx="1050" dy="629" grid="1" gridSize="10" guides="1" tooltips="1" connect="1" arrows="1" fold="1" page="1" pageScale="1" pageWidth="960" pageHeight="1600" math="0" shadow="0">
      <root>
        <mxCell id="0" />
        <mxCell id="1" parent="0" />
        <mxCell id="tY1ZD3I10Eq6oRQI1ivc-1" value="Enable and Disable IME" style="rounded=0;whiteSpace=wrap;html=1;" parent="1" vertex="1">
          <mxGeometry x="40" y="40" width="360" height="40" as="geometry" />
        </mxCell>
        <mxCell id="tY1ZD3I10Eq6oRQI1ivc-47" style="edgeStyle=orthogonalEdgeStyle;rounded=0;orthogonalLoop=1;jettySize=auto;html=1;exitX=0.5;exitY=1;exitDx=0;exitDy=0;entryX=0.5;entryY=0;entryDx=0;entryDy=0;" parent="1" source="tY1ZD3I10Eq6oRQI1ivc-2" target="tY1ZD3I10Eq6oRQI1ivc-3" edge="1">
          <mxGeometry relative="1" as="geometry" />
        </mxCell>
        <mxCell id="tY1ZD3I10Eq6oRQI1ivc-2" value="Start" style="rounded=1;whiteSpace=wrap;html=1;" parent="1" vertex="1">
          <mxGeometry x="120" y="120" width="80" height="40" as="geometry" />
        </mxCell>
        <mxCell id="tY1ZD3I10Eq6oRQI1ivc-34" style="edgeStyle=orthogonalEdgeStyle;rounded=0;orthogonalLoop=1;jettySize=auto;html=1;exitX=0;exitY=0.5;exitDx=0;exitDy=0;entryX=0.5;entryY=0;entryDx=0;entryDy=0;" parent="1" source="tY1ZD3I10Eq6oRQI1ivc-3" edge="1">
          <mxGeometry relative="1" as="geometry">
            <mxPoint x="80" y="320" as="targetPoint" />
          </mxGeometry>
        </mxCell>
        <mxCell id="tY1ZD3I10Eq6oRQI1ivc-35" value="Enter" style="edgeLabel;html=1;align=center;verticalAlign=middle;resizable=0;points=[];" parent="tY1ZD3I10Eq6oRQI1ivc-34" vertex="1" connectable="0">
          <mxGeometry x="-0.052" y="-1" relative="1" as="geometry">
            <mxPoint as="offset" />
          </mxGeometry>
        </mxCell>
        <mxCell id="tY1ZD3I10Eq6oRQI1ivc-36" style="edgeStyle=orthogonalEdgeStyle;rounded=0;orthogonalLoop=1;jettySize=auto;html=1;exitX=1;exitY=0.5;exitDx=0;exitDy=0;entryX=0.5;entryY=0;entryDx=0;entryDy=0;" parent="1" source="tY1ZD3I10Eq6oRQI1ivc-3" target="tY1ZD3I10Eq6oRQI1ivc-7" edge="1">
          <mxGeometry relative="1" as="geometry" />
        </mxCell>
        <mxCell id="tY1ZD3I10Eq6oRQI1ivc-37" value="Exit" style="edgeLabel;html=1;align=center;verticalAlign=middle;resizable=0;points=[];" parent="tY1ZD3I10Eq6oRQI1ivc-36" vertex="1" connectable="0">
          <mxGeometry x="-0.0229" relative="1" as="geometry">
            <mxPoint as="offset" />
          </mxGeometry>
        </mxCell>
        <mxCell id="tY1ZD3I10Eq6oRQI1ivc-3" value="Enter or exit&lt;div&gt;the text input state&lt;br&gt;&lt;/div&gt;" style="rhombus;whiteSpace=wrap;html=1;" parent="1" vertex="1">
          <mxGeometry x="100" y="200" width="120" height="80" as="geometry" />
        </mxCell>
        <mxCell id="tY1ZD3I10Eq6oRQI1ivc-6" value="Process key messages" style="rounded=0;whiteSpace=wrap;html=1;" parent="1" vertex="1">
          <mxGeometry x="480" y="40" width="240" height="40" as="geometry" />
        </mxCell>
        <mxCell id="tY1ZD3I10Eq6oRQI1ivc-38" style="edgeStyle=orthogonalEdgeStyle;rounded=0;orthogonalLoop=1;jettySize=auto;html=1;exitX=0;exitY=0.5;exitDx=0;exitDy=0;entryX=0.5;entryY=0;entryDx=0;entryDy=0;" parent="1" source="tY1ZD3I10Eq6oRQI1ivc-7" target="tY1ZD3I10Eq6oRQI1ivc-39" edge="1">
          <mxGeometry relative="1" as="geometry">
            <mxPoint x="155" y="469.52" as="targetPoint" />
          </mxGeometry>
        </mxCell>
        <mxCell id="tY1ZD3I10Eq6oRQI1ivc-45" value="Lagacy UI" style="edgeLabel;html=1;align=center;verticalAlign=middle;resizable=0;points=[];" parent="tY1ZD3I10Eq6oRQI1ivc-38" vertex="1" connectable="0">
          <mxGeometry x="0.1795" y="1" relative="1" as="geometry">
            <mxPoint as="offset" />
          </mxGeometry>
        </mxCell>
        <mxCell id="tY1ZD3I10Eq6oRQI1ivc-41" style="edgeStyle=orthogonalEdgeStyle;rounded=0;orthogonalLoop=1;jettySize=auto;html=1;exitX=1;exitY=0.5;exitDx=0;exitDy=0;entryX=0.5;entryY=0;entryDx=0;entryDy=0;" parent="1" source="tY1ZD3I10Eq6oRQI1ivc-7" target="tY1ZD3I10Eq6oRQI1ivc-42" edge="1">
          <mxGeometry relative="1" as="geometry">
            <mxPoint x="320" y="480" as="targetPoint" />
          </mxGeometry>
        </mxCell>
        <mxCell id="tY1ZD3I10Eq6oRQI1ivc-46" value="Direct UI" style="edgeLabel;html=1;align=center;verticalAlign=middle;resizable=0;points=[];" parent="tY1ZD3I10Eq6oRQI1ivc-41" vertex="1" connectable="0">
          <mxGeometry x="0.197" y="-1" relative="1" as="geometry">
            <mxPoint as="offset" />
          </mxGeometry>
        </mxCell>
        <mxCell id="tY1ZD3I10Eq6oRQI1ivc-7" value="Lagacy UI&lt;div&gt;or&lt;/div&gt;&lt;div&gt;Direct UI&lt;/div&gt;" style="rhombus;whiteSpace=wrap;html=1;" parent="1" vertex="1">
          <mxGeometry x="180" y="320" width="120" height="80" as="geometry" />
        </mxCell>
        <mxCell id="tY1ZD3I10Eq6oRQI1ivc-48" style="edgeStyle=orthogonalEdgeStyle;rounded=0;orthogonalLoop=1;jettySize=auto;html=1;exitX=0.5;exitY=1;exitDx=0;exitDy=0;entryX=0.5;entryY=0;entryDx=0;entryDy=0;" parent="1" source="tY1ZD3I10Eq6oRQI1ivc-9" target="tY1ZD3I10Eq6oRQI1ivc-10" edge="1">
          <mxGeometry relative="1" as="geometry" />
        </mxCell>
        <mxCell id="tY1ZD3I10Eq6oRQI1ivc-9" value="Start" style="rounded=1;whiteSpace=wrap;html=1;" parent="1" vertex="1">
          <mxGeometry x="560" y="120" width="80" height="40" as="geometry" />
        </mxCell>
        <mxCell id="tY1ZD3I10Eq6oRQI1ivc-51" style="edgeStyle=orthogonalEdgeStyle;rounded=0;orthogonalLoop=1;jettySize=auto;html=1;exitX=0;exitY=0.5;exitDx=0;exitDy=0;entryX=0.5;entryY=0;entryDx=0;entryDy=0;" parent="1" source="tY1ZD3I10Eq6oRQI1ivc-10" target="tY1ZD3I10Eq6oRQI1ivc-49" edge="1">
          <mxGeometry relative="1" as="geometry" />
        </mxCell>
        <mxCell id="tY1ZD3I10Eq6oRQI1ivc-52" value="Yes" style="edgeLabel;html=1;align=center;verticalAlign=middle;resizable=0;points=[];" parent="tY1ZD3I10Eq6oRQI1ivc-51" vertex="1" connectable="0">
          <mxGeometry x="0.056" y="-2" relative="1" as="geometry">
            <mxPoint as="offset" />
          </mxGeometry>
        </mxCell>
        <mxCell id="tY1ZD3I10Eq6oRQI1ivc-53" style="edgeStyle=orthogonalEdgeStyle;rounded=0;orthogonalLoop=1;jettySize=auto;html=1;exitX=1;exitY=0.5;exitDx=0;exitDy=0;entryX=0.5;entryY=0;entryDx=0;entryDy=0;" parent="1" source="tY1ZD3I10Eq6oRQI1ivc-10" target="tY1ZD3I10Eq6oRQI1ivc-50" edge="1">
          <mxGeometry relative="1" as="geometry" />
        </mxCell>
        <mxCell id="tY1ZD3I10Eq6oRQI1ivc-54" value="No" style="edgeLabel;html=1;align=center;verticalAlign=middle;resizable=0;points=[];" parent="tY1ZD3I10Eq6oRQI1ivc-53" vertex="1" connectable="0">
          <mxGeometry x="0.032" y="-2" relative="1" as="geometry">
            <mxPoint as="offset" />
          </mxGeometry>
        </mxCell>
        <mxCell id="tY1ZD3I10Eq6oRQI1ivc-10" value="Is key processed&lt;div&gt;by IME?&lt;/div&gt;" style="rhombus;whiteSpace=wrap;html=1;" parent="1" vertex="1">
          <mxGeometry x="540" y="200" width="120" height="80" as="geometry" />
        </mxCell>
        <mxCell id="tY1ZD3I10Eq6oRQI1ivc-55" style="edgeStyle=orthogonalEdgeStyle;rounded=0;orthogonalLoop=1;jettySize=auto;html=1;exitX=0.5;exitY=1;exitDx=0;exitDy=0;entryX=0.5;entryY=0;entryDx=0;entryDy=0;" parent="1" source="tY1ZD3I10Eq6oRQI1ivc-13" target="tY1ZD3I10Eq6oRQI1ivc-14" edge="1">
          <mxGeometry relative="1" as="geometry" />
        </mxCell>
        <mxCell id="tY1ZD3I10Eq6oRQI1ivc-13" value="Start" style="rounded=1;whiteSpace=wrap;html=1;" parent="1" vertex="1">
          <mxGeometry x="840" y="120" width="80" height="40" as="geometry" />
        </mxCell>
        <mxCell id="tY1ZD3I10Eq6oRQI1ivc-57" style="edgeStyle=orthogonalEdgeStyle;rounded=0;orthogonalLoop=1;jettySize=auto;html=1;exitX=1;exitY=0.5;exitDx=0;exitDy=0;entryX=0;entryY=0.5;entryDx=0;entryDy=0;" parent="1" source="tY1ZD3I10Eq6oRQI1ivc-14" target="tY1ZD3I10Eq6oRQI1ivc-56" edge="1">
          <mxGeometry relative="1" as="geometry">
            <mxPoint x="940.0000000000002" y="239.86" as="sourcePoint" />
            <mxPoint x="1000" y="239.86" as="targetPoint" />
            <Array as="points">
              <mxPoint x="970" y="220" />
              <mxPoint x="970" y="220" />
            </Array>
          </mxGeometry>
        </mxCell>
        <mxCell id="tY1ZD3I10Eq6oRQI1ivc-61" value="Yes" style="edgeLabel;html=1;align=center;verticalAlign=middle;resizable=0;points=[];" parent="tY1ZD3I10Eq6oRQI1ivc-57" vertex="1" connectable="0">
          <mxGeometry x="-0.2667" y="2" relative="1" as="geometry">
            <mxPoint x="-22" y="22" as="offset" />
          </mxGeometry>
        </mxCell>
        <mxCell id="tY1ZD3I10Eq6oRQI1ivc-59" style="edgeStyle=orthogonalEdgeStyle;rounded=0;orthogonalLoop=1;jettySize=auto;html=1;exitX=0.5;exitY=1;exitDx=0;exitDy=0;entryX=0.5;entryY=0;entryDx=0;entryDy=0;" parent="1" source="tY1ZD3I10Eq6oRQI1ivc-14" target="tY1ZD3I10Eq6oRQI1ivc-58" edge="1">
          <mxGeometry relative="1" as="geometry" />
        </mxCell>
        <mxCell id="tY1ZD3I10Eq6oRQI1ivc-60" value="No" style="edgeLabel;html=1;align=center;verticalAlign=middle;resizable=0;points=[];" parent="tY1ZD3I10Eq6oRQI1ivc-59" vertex="1" connectable="0">
          <mxGeometry x="-0.28" y="2" relative="1" as="geometry">
            <mxPoint x="8" y="-4" as="offset" />
          </mxGeometry>
        </mxCell>
        <mxCell id="tY1ZD3I10Eq6oRQI1ivc-14" value="WM_IME_STARTCOMPOSITION" style="rhombus;whiteSpace=wrap;html=1;fontSize=9;" parent="1" vertex="1">
          <mxGeometry x="800" y="200" width="160" height="40" as="geometry" />
        </mxCell>
        <mxCell id="tY1ZD3I10Eq6oRQI1ivc-20" value="Position the candidate window" style="rounded=0;whiteSpace=wrap;html=1;" parent="1" vertex="1">
          <mxGeometry x="1320" y="40" width="400" height="40" as="geometry" />
        </mxCell>
        <mxCell id="tY1ZD3I10Eq6oRQI1ivc-93" style="edgeStyle=orthogonalEdgeStyle;rounded=0;orthogonalLoop=1;jettySize=auto;html=1;exitX=0.5;exitY=1;exitDx=0;exitDy=0;entryX=0.5;entryY=0;entryDx=0;entryDy=0;" parent="1" source="tY1ZD3I10Eq6oRQI1ivc-21" target="tY1ZD3I10Eq6oRQI1ivc-22" edge="1">
          <mxGeometry relative="1" as="geometry" />
        </mxCell>
        <mxCell id="tY1ZD3I10Eq6oRQI1ivc-21" value="Start" style="rounded=1;whiteSpace=wrap;html=1;" parent="1" vertex="1">
          <mxGeometry x="1320" y="120" width="80" height="40" as="geometry" />
        </mxCell>
        <mxCell id="tY1ZD3I10Eq6oRQI1ivc-78" style="edgeStyle=orthogonalEdgeStyle;rounded=0;orthogonalLoop=1;jettySize=auto;html=1;exitX=1;exitY=0.5;exitDx=0;exitDy=0;entryX=0;entryY=0.5;entryDx=0;entryDy=0;" parent="1" source="tY1ZD3I10Eq6oRQI1ivc-22" target="tY1ZD3I10Eq6oRQI1ivc-77" edge="1">
          <mxGeometry relative="1" as="geometry" />
        </mxCell>
        <mxCell id="tY1ZD3I10Eq6oRQI1ivc-79" value="No" style="edgeLabel;html=1;align=center;verticalAlign=middle;resizable=0;points=[];" parent="tY1ZD3I10Eq6oRQI1ivc-78" vertex="1" connectable="0">
          <mxGeometry x="-0.6888" y="1" relative="1" as="geometry">
            <mxPoint x="8" y="-9" as="offset" />
          </mxGeometry>
        </mxCell>
        <mxCell id="tY1ZD3I10Eq6oRQI1ivc-22" value="Is composing?" style="rhombus;whiteSpace=wrap;html=1;" parent="1" vertex="1">
          <mxGeometry x="1320" y="200" width="80" height="80" as="geometry" />
        </mxCell>
        <mxCell id="tY1ZD3I10Eq6oRQI1ivc-82" style="edgeStyle=orthogonalEdgeStyle;rounded=0;orthogonalLoop=1;jettySize=auto;html=1;exitX=0.5;exitY=1;exitDx=0;exitDy=0;entryX=0;entryY=0.5;entryDx=0;entryDy=0;" parent="1" source="tY1ZD3I10Eq6oRQI1ivc-22" target="tY1ZD3I10Eq6oRQI1ivc-81" edge="1">
          <mxGeometry relative="1" as="geometry">
            <mxPoint x="1400" y="360" as="sourcePoint" />
          </mxGeometry>
        </mxCell>
        <mxCell id="tY1ZD3I10Eq6oRQI1ivc-83" value="Yes" style="edgeLabel;html=1;align=center;verticalAlign=middle;resizable=0;points=[];" parent="tY1ZD3I10Eq6oRQI1ivc-82" vertex="1" connectable="0">
          <mxGeometry x="-0.405" y="3" relative="1" as="geometry">
            <mxPoint x="57" y="10" as="offset" />
          </mxGeometry>
        </mxCell>
        <mxCell id="tY1ZD3I10Eq6oRQI1ivc-39" value="Do nothing" style="rounded=0;whiteSpace=wrap;html=1;fillColor=#f5f5f5;fontColor=#333333;strokeColor=#666666;" parent="1" vertex="1">
          <mxGeometry x="120" y="480" width="80" height="40" as="geometry" />
        </mxCell>
        <mxCell id="tY1ZD3I10Eq6oRQI1ivc-40" value="Enable IME" style="rounded=0;whiteSpace=wrap;html=1;" parent="1" vertex="1">
          <mxGeometry x="40" y="320" width="80" height="40" as="geometry" />
        </mxCell>
        <mxCell id="tY1ZD3I10Eq6oRQI1ivc-44" style="edgeStyle=orthogonalEdgeStyle;rounded=0;orthogonalLoop=1;jettySize=auto;html=1;exitX=0.5;exitY=1;exitDx=0;exitDy=0;entryX=0.5;entryY=0;entryDx=0;entryDy=0;" parent="1" source="tY1ZD3I10Eq6oRQI1ivc-42" target="tY1ZD3I10Eq6oRQI1ivc-43" edge="1">
          <mxGeometry relative="1" as="geometry" />
        </mxCell>
        <mxCell id="tY1ZD3I10Eq6oRQI1ivc-42" value="Force complete or&amp;nbsp;cancel&lt;div&gt;the ongoing composition&lt;br&gt;&lt;/div&gt;" style="rounded=0;whiteSpace=wrap;html=1;" parent="1" vertex="1">
          <mxGeometry x="240" y="480" width="160" height="40" as="geometry" />
        </mxCell>
        <mxCell id="tY1ZD3I10Eq6oRQI1ivc-43" value="Disable IME" style="rounded=0;whiteSpace=wrap;html=1;" parent="1" vertex="1">
          <mxGeometry x="240" y="560" width="160" height="40" as="geometry" />
        </mxCell>
        <mxCell id="tY1ZD3I10Eq6oRQI1ivc-49" value="Ignore key" style="rounded=0;whiteSpace=wrap;html=1;fillColor=#f5f5f5;fontColor=#333333;strokeColor=#666666;" parent="1" vertex="1">
          <mxGeometry x="480" y="320" width="80" height="40" as="geometry" />
        </mxCell>
        <mxCell id="tY1ZD3I10Eq6oRQI1ivc-50" value="Handle key" style="rounded=0;whiteSpace=wrap;html=1;" parent="1" vertex="1">
          <mxGeometry x="640" y="320" width="80" height="40" as="geometry" />
        </mxCell>
        <mxCell id="tY1ZD3I10Eq6oRQI1ivc-56" value="Do nothing" style="rounded=0;whiteSpace=wrap;html=1;fillColor=#f5f5f5;fontColor=#333333;strokeColor=#666666;" parent="1" vertex="1">
          <mxGeometry x="1000" y="200" width="240" height="40" as="geometry" />
        </mxCell>
        <mxCell id="tY1ZD3I10Eq6oRQI1ivc-68" style="edgeStyle=orthogonalEdgeStyle;rounded=0;orthogonalLoop=1;jettySize=auto;html=1;exitX=0.5;exitY=1;exitDx=0;exitDy=0;entryX=0.5;entryY=0;entryDx=0;entryDy=0;" parent="1" source="tY1ZD3I10Eq6oRQI1ivc-58" target="tY1ZD3I10Eq6oRQI1ivc-67" edge="1">
          <mxGeometry relative="1" as="geometry" />
        </mxCell>
        <mxCell id="tY1ZD3I10Eq6oRQI1ivc-75" value="No" style="edgeLabel;html=1;align=center;verticalAlign=middle;resizable=0;points=[];" parent="tY1ZD3I10Eq6oRQI1ivc-68" vertex="1" connectable="0">
          <mxGeometry x="-0.7198" y="1" relative="1" as="geometry">
            <mxPoint x="9" y="-13" as="offset" />
          </mxGeometry>
        </mxCell>
        <mxCell id="tY1ZD3I10Eq6oRQI1ivc-70" style="edgeStyle=orthogonalEdgeStyle;rounded=0;orthogonalLoop=1;jettySize=auto;html=1;exitX=1;exitY=0.5;exitDx=0;exitDy=0;entryX=0;entryY=0.5;entryDx=0;entryDy=0;" parent="1" source="tY1ZD3I10Eq6oRQI1ivc-58" target="tY1ZD3I10Eq6oRQI1ivc-63" edge="1">
          <mxGeometry relative="1" as="geometry" />
        </mxCell>
        <mxCell id="tY1ZD3I10Eq6oRQI1ivc-74" value="Yes" style="edgeLabel;html=1;align=center;verticalAlign=middle;resizable=0;points=[];" parent="tY1ZD3I10Eq6oRQI1ivc-70" vertex="1" connectable="0">
          <mxGeometry x="0.0299" y="1" relative="1" as="geometry">
            <mxPoint x="-31" y="21" as="offset" />
          </mxGeometry>
        </mxCell>
        <mxCell id="tY1ZD3I10Eq6oRQI1ivc-58" value="WM_IME_COMPOSITION" style="rhombus;whiteSpace=wrap;html=1;fontSize=9;" parent="1" vertex="1">
          <mxGeometry x="800" y="280" width="160" height="40" as="geometry" />
        </mxCell>
        <mxCell id="tY1ZD3I10Eq6oRQI1ivc-71" style="edgeStyle=orthogonalEdgeStyle;rounded=0;orthogonalLoop=1;jettySize=auto;html=1;exitX=0.5;exitY=1;exitDx=0;exitDy=0;entryX=0.5;entryY=0;entryDx=0;entryDy=0;" parent="1" source="tY1ZD3I10Eq6oRQI1ivc-63" target="tY1ZD3I10Eq6oRQI1ivc-64" edge="1">
          <mxGeometry relative="1" as="geometry" />
        </mxCell>
        <mxCell id="tY1ZD3I10Eq6oRQI1ivc-63" value="Erase the prev composition string (if exists)" style="rounded=0;whiteSpace=wrap;html=1;" parent="1" vertex="1">
          <mxGeometry x="1000" y="280" width="240" height="40" as="geometry" />
        </mxCell>
        <mxCell id="tY1ZD3I10Eq6oRQI1ivc-72" style="edgeStyle=orthogonalEdgeStyle;rounded=0;orthogonalLoop=1;jettySize=auto;html=1;exitX=0.5;exitY=1;exitDx=0;exitDy=0;entryX=0.5;entryY=0;entryDx=0;entryDy=0;" parent="1" source="tY1ZD3I10Eq6oRQI1ivc-64" target="tY1ZD3I10Eq6oRQI1ivc-65" edge="1">
          <mxGeometry relative="1" as="geometry" />
        </mxCell>
        <mxCell id="tY1ZD3I10Eq6oRQI1ivc-64" value="Insert the result string (if exists)" style="rounded=0;whiteSpace=wrap;html=1;" parent="1" vertex="1">
          <mxGeometry x="1000" y="340" width="240" height="40" as="geometry" />
        </mxCell>
        <mxCell id="tY1ZD3I10Eq6oRQI1ivc-65" value="Draw the composition string (if exists)" style="rounded=0;whiteSpace=wrap;html=1;" parent="1" vertex="1">
          <mxGeometry x="1000" y="400" width="240" height="40" as="geometry" />
        </mxCell>
        <mxCell id="tY1ZD3I10Eq6oRQI1ivc-66" value="Erase the prev composition string (if exists)" style="rounded=0;whiteSpace=wrap;html=1;" parent="1" vertex="1">
          <mxGeometry x="1000" y="480" width="240" height="40" as="geometry" />
        </mxCell>
        <mxCell id="tY1ZD3I10Eq6oRQI1ivc-69" style="edgeStyle=orthogonalEdgeStyle;rounded=0;orthogonalLoop=1;jettySize=auto;html=1;exitX=1;exitY=0.5;exitDx=0;exitDy=0;entryX=0;entryY=0.5;entryDx=0;entryDy=0;" parent="1" source="tY1ZD3I10Eq6oRQI1ivc-67" target="tY1ZD3I10Eq6oRQI1ivc-66" edge="1">
          <mxGeometry relative="1" as="geometry" />
        </mxCell>
        <mxCell id="tY1ZD3I10Eq6oRQI1ivc-73" value="Yes" style="edgeLabel;html=1;align=center;verticalAlign=middle;resizable=0;points=[];" parent="tY1ZD3I10Eq6oRQI1ivc-69" vertex="1" connectable="0">
          <mxGeometry x="0.3517" relative="1" as="geometry">
            <mxPoint x="-41" y="20" as="offset" />
          </mxGeometry>
        </mxCell>
        <mxCell id="tY1ZD3I10Eq6oRQI1ivc-67" value="WM_IME_ENDCOMPOSITION" style="rhombus;whiteSpace=wrap;html=1;fontSize=9;" parent="1" vertex="1">
          <mxGeometry x="800" y="480" width="160" height="40" as="geometry" />
        </mxCell>
        <mxCell id="tY1ZD3I10Eq6oRQI1ivc-77" value="Locate at the text cursor" style="rounded=0;whiteSpace=wrap;html=1;" parent="1" vertex="1">
          <mxGeometry x="1480" y="220" width="240" height="40" as="geometry" />
        </mxCell>
        <mxCell id="tY1ZD3I10Eq6oRQI1ivc-81" value="Locate at the start of &quot;Target&quot;" style="rounded=0;whiteSpace=wrap;html=1;" parent="1" vertex="1">
          <mxGeometry x="1480" y="340" width="240" height="40" as="geometry" />
        </mxCell>
        <mxCell id="PkWwYERlHGdCSpYR_EJm-1" value="Process composition messages" style="rounded=0;whiteSpace=wrap;html=1;" parent="1" vertex="1">
          <mxGeometry x="800" y="40" width="440" height="40" as="geometry" />
        </mxCell>
      </root>
    </mxGraphModel>
  </diagram>
</mxfile>
